<svg aria-hidden="true" style="position: absolute; width: 0; height: 0; overflow: hidden;" version="1.1" xmlns="http://www.w3.org/2000/svg" xmlns:xlink="http://www.w3.org/1999/xlink">
<defs>
<symbol id="icon-vector-1" viewBox="0 0 32 32">
<path stroke-linejoin="miter" stroke-linecap="butt" stroke-miterlimit="4" stroke-width="4" d="M2 2l28 28"></path>
</symbol>
<symbol id="icon-google" viewBox="0 0 32 32">
<path fill="#e94335" style="fill: var(--color1, #e94335)" d="M2.65 9.119c0.969-2.019 2.337-3.725 4.063-5.144 2.338-1.931 5.019-3.094 8.025-3.45 3.531-0.419 6.85 0.25 9.919 2.087 0.762 0.456 1.475 0.975 2.156 1.538 0.169 0.138 0.15 0.219 0.006 0.356-1.394 1.388-2.788 2.775-4.169 4.175-0.163 0.162-0.25 0.15-0.425 0.019-4.050-3.119-9.956-2.275-12.975 1.85-0.531 0.725-0.963 1.506-1.263 2.356-0.025 0.075-0.075 0.144-0.112 0.219-0.806-0.613-1.619-1.225-2.419-1.844-0.938-0.719-1.875-1.438-2.806-2.162z"></path>
<path fill="#34a853" style="fill: var(--color2, #34a853)" d="M7.875 18.988c0.269 0.594 0.494 1.212 0.831 1.769 1.419 2.325 3.444 3.819 6.113 4.35 2.406 0.481 4.719 0.156 6.875-1.050 0.075-0.038 0.15-0.075 0.219-0.113 0.038 0.038 0.069 0.081 0.106 0.113 1.613 1.25 3.231 2.5 4.844 3.75-0.775 0.769-1.656 1.387-2.594 1.925-2.719 1.55-5.662 2.175-8.762 1.938-3.863-0.3-7.194-1.825-9.944-4.575-1.206-1.206-2.2-2.569-2.919-4.125 0.669-0.512 1.337-1.019 2.006-1.531 1.075-0.819 2.15-1.631 3.225-2.45z"></path>
<path fill="#4285f3" style="fill: var(--color3, #4285f3)" d="M26.869 27.806c-1.613-1.25-3.231-2.5-4.844-3.75-0.038-0.031-0.075-0.075-0.106-0.113 0.556-0.431 1.125-0.85 1.581-1.4 0.762-0.913 1.269-1.944 1.531-3.1 0.031-0.144 0.006-0.194-0.137-0.188-0.075 0.006-0.144 0-0.219 0-2.55 0-5.106-0.006-7.656 0.006-0.281 0-0.344-0.075-0.337-0.344 0.012-1.813 0.012-3.625 0-5.438 0-0.231 0.063-0.294 0.294-0.294 4.675 0.006 9.35 0.006 14.031 0 0.2 0 0.281 0.050 0.331 0.262 0.381 1.719 0.356 3.444 0.125 5.181-0.188 1.387-0.525 2.731-1.044 4.031-0.769 1.919-1.9 3.594-3.387 5.031-0.056 0.044-0.113 0.075-0.163 0.113z"></path>
<path fill="#fabb06" style="fill: var(--color4, #fabb06)" d="M7.875 18.988c-1.075 0.819-2.15 1.631-3.225 2.45-0.669 0.506-1.337 1.019-2.006 1.531-0.519-0.962-0.856-1.981-1.131-3.031-0.525-2.031-0.606-4.094-0.319-6.162 0.225-1.625 0.694-3.188 1.45-4.65 0.938 0.719 1.869 1.444 2.806 2.162 0.806 0.619 1.612 1.231 2.419 1.844-0.138 0.669-0.331 1.325-0.394 2.013-0.112 1.25 0.006 2.469 0.362 3.669 0.025 0.050 0.031 0.113 0.037 0.175z"></path>
</symbol>
</defs>
</svg>